<?xml version="1.0" encoding="utf-8"?>
<!-- Generator: Adobe Illustrator 15.0.0, SVG Export Plug-In . SVG Version: 6.00 Build 0)  -->
<!DOCTYPE svg PUBLIC "-//W3C//DTD SVG 1.1//EN" "http://www.w3.org/Graphics/SVG/1.1/DTD/svg11.dtd">
<svg version="1.1" xmlns="http://www.w3.org/2000/svg" xmlns:xlink="http://www.w3.org/1999/xlink" x="0px" y="0px"
	 width="368.724px" height="328.104px" viewBox="0 0 368.724 328.104" enable-background="new 0 0 368.724 328.104"
	 xml:space="preserve">
<g id="图层_2">
	<path fill="#FFFFFF" stroke="#B5B5B6" stroke-width="2" stroke-miterlimit="10" d="M54.242,97.069l8.966,8.965
		c0,0-25.517-2.069-24.828,17.931c0.689,1.379-3.448,25.517,20,24.828c1.379,0.689,26.207,0.015,26.207,0.015
		s1.379,22.744,27.586,53.089c0.689,2.069-28.276,24.828-28.276,24.828s-32.414-4.138-41.379,16.552
		c-1.379-1.379-14.483,34.482,16.552,47.586c0.689,0,0,19.419,26.207,24.828c0,0,36.552,4.828,40-28.965
		c0.689-0.69,22.758,31.724,62.758,26.207c0.69-0.689,28.276,2.758,54.483-23.448c-0.689-0.689,4.828,29.442,37.931,26.445
		c1.379,0.451,25.518-5.065,25.518-25.755c0.689,0,31.725-1.379,20-48.276c0.689,2.069-11.725-22.069-40.69-10.345
		c0.689,0-27.586-30.345-27.586-30.345s22.759-16.552,28.966-51.724c0.689,1.379,30.345-2.758,30.345-2.758
		s25.978-3.448,11.609-35.172c0.805,0-8.851-8.276-22.644-4.828c0.689,0,2.068-7.586,12.413-9.655
		c0.689,0,23.632,6.897,33.793-10.345c0-0.69,20-33.104-13.793-52.414c0-1.379-13.794-29.655-39.311-21.379
		c0.69,0-33.103-1.379-28.275,40.69c0.689,0.689-6.896,6.896-6.896,6.896s-19.391-35.862-80.041-37.241
		c-0.649,0-51.684,0.689-79.27,33.793c-0.689,0-7.586-1.38-6.896-11.035c-0.689,1.379,4.139-35.443-31.034-34.618
		c-0.69,0.136-27.586-1.934-33.104,21.515c0,0-33.104,11.035-17.931,50.345C14.932,84.655,30.104,106.725,54.242,97.069z"/>
</g>
<g id="图层_3">
	
		<path fill="#FFFFFF" stroke="#000000" stroke-width="5" stroke-linecap="round" stroke-linejoin="round" stroke-miterlimit="10" d="
		M48.725,48.104c0,0-26.207-1.379-21.379,23.448c0.689,0,7.586,23.448,30.345,6.207c-1.379,0,203.448,192.414,203.448,192.414
		s-14.483,19.311,9.655,29.655c0.689,1.379,28.275,2.758,20.689-22.759c-0.689,1.379,29.654,0.689,20.689-28.276
		c0,2.069-9.654-22.758-30.344-0.689c0.689,0-203.448-191.724-203.448-191.724s15.862-19.311-8.966-31.035
		C68.035,26.035,45.277,23.966,48.725,48.104z"/>
	
		<path fill="#FFFFFF" stroke="#000000" stroke-width="5" stroke-linecap="round" stroke-linejoin="round" stroke-miterlimit="10" d="
		M323.112,51.109c0,0,3.307-26.034-21.809-23.049c-0.051,0.688-23.943,5.837-8.426,29.805
		c0.102-1.375-206.885,188.714-206.885,188.714s-18.19-15.866-30.286,7.443c-1.426,0.586-4.834,27.995,21.172,22.311
		c-1.325-0.79-2.873,29.522,26.674,22.717c-2.063-0.152,23.408-7.951,2.924-30.211c-0.051,0.688,206.197-188.765,206.197-188.765
		s18.089,17.242,31.611-6.654C343.699,71.993,347.439,49.449,323.112,51.109z"/>
</g>
<g id="图层_4">
	<g>
		<path fill="#FFFFFF" stroke="#000000" stroke-width="5" stroke-miterlimit="10" d="M135.635,201.551
			c0,0-23.773,58.065,9.33,84.961c0.69,0,33.794,29.655,75.863,0c0.689,0,25.517-15.862,15.172-64.828
			c0.689,0.69-3.449-14.061-7.586-20.134C228.897,203.193,180.786,234.52,135.635,201.551z"/>
		<circle fill="#FFFFFF" stroke="#000000" stroke-width="5" stroke-miterlimit="10" cx="183.593" cy="127.019" r="88.62"/>
		<path fill="#1E4D69" stroke="#000000" stroke-width="5" stroke-miterlimit="10" d="M101.324,94.022h164.539
			c0,0-22.961-50.797-82.27-55.625C183.594,38.398,134.916,36.543,101.324,94.022z"/>
		<path fill="#38AA6A" stroke="#000000" stroke-width="5" stroke-miterlimit="10" d="M95.63,116.207h175.926
			c0,0,1.914-9.591-5.693-22.185H101.324C101.324,94.022,96.125,110.71,95.63,116.207z"/>
		<path fill="#224D62" stroke="#000000" stroke-width="5" stroke-miterlimit="10" d="M55.542,116.207h257.242
			c0,0,13.793,6.33,0,16.674H55.542C55.542,132.881,40.37,125.05,55.542,116.207z"/>
		<circle cx="149.853" cy="165.381" r="22.759"/>
		<circle cx="217.334" cy="165.381" r="22.758"/>
		<ellipse cx="182.73" cy="197.07" rx="9.31" ry="7.561"/>
		<path fill="#FFFFFF" stroke="#000000" stroke-width="5" stroke-miterlimit="10" d="M127.378,243.269c0,0,64.051,38.613,111.132,0
			c-0.023-1.408-2.51-21.584-2.51-21.584s-34.426,34.27-106.211,0C129.772,221.766,127.378,243.269,127.378,243.269z"/>
		
			<line fill="#FFFFFF" stroke="#000000" stroke-width="5" stroke-miterlimit="10" x1="156.625" y1="213.621" x2="149.852" y2="250.622"/>
		
			<line fill="#FFFFFF" stroke="#000000" stroke-width="5" stroke-miterlimit="10" x1="183.594" y1="215.639" x2="183.856" y2="260.299"/>
		
			<line fill="#FFFFFF" stroke="#000000" stroke-width="5" stroke-miterlimit="10" x1="209.039" y1="213.621" x2="217.334" y2="255.494"/>
		<path fill="none" stroke="#000000" stroke-width="5" stroke-linecap="round" stroke-miterlimit="10" d="M127.094,82.587
			c0,0,4.013-12.07,17.807-16.38"/>
		
			<line fill="none" stroke="#000000" stroke-width="5" stroke-linecap="round" stroke-miterlimit="10" x1="144.9" y1="82.587" x2="156.625" y2="70.863"/>
		
			<line fill="none" stroke="#000000" stroke-width="5" stroke-linecap="round" stroke-miterlimit="10" x1="156.625" y1="87.415" x2="166.97" y2="76.725"/>
		<path fill="none" stroke="#000000" stroke-width="5" stroke-linecap="round" stroke-miterlimit="10" d="M227.659,66.207
			c0,0,15.862,8.104,18.621,16.38"/>
		<path fill="none" stroke="#000000" stroke-width="5" stroke-linecap="round" stroke-miterlimit="10" d="M217.334,74.397
			c0,0,11.015,6.41,10.325,13.018"/>
	</g>
</g>
</svg>
