<?xml version="1.0" encoding="utf-8"?>
<!-- Generator: Adobe Illustrator 15.0.0, SVG Export Plug-In . SVG Version: 6.00 Build 0)  -->
<!DOCTYPE svg PUBLIC "-//W3C//DTD SVG 1.1//EN" "http://www.w3.org/Graphics/SVG/1.1/DTD/svg11.dtd">
<svg version="1.1" xmlns="http://www.w3.org/2000/svg" xmlns:xlink="http://www.w3.org/1999/xlink" x="0px" y="0px"
	 width="104.987px" height="104.987px" viewBox="0 0 104.987 104.987" enable-background="new 0 0 104.987 104.987"
	 xml:space="preserve">
<g id="图层_3">
</g>
<g id="图层_4">
</g>
<g id="图层_5">
</g>
<g id="图层_2">
	<path fill="#FDF3E9" stroke="#000000" stroke-width="0.5" stroke-miterlimit="10" d="M70.833,52.74c0,0-4.303,12.317-20.651,12.983
		c-0.015-0.167-16.532,2.35-25.857-6.492c-0.158,0.158-10.991-10.675-1.658-27.175c0,0,11.487-10.834,29.827-7.167
		c0.006,0,12.84,0.834,17.173,9.167C69.833,34.224,76.167,43.257,70.833,52.74z"/>
	<path stroke="#000000" stroke-width="0.5" stroke-miterlimit="10" d="M34.54,64.645c0,0-7.317,7.913-6.929,22.579
		c0.389,0.333-1.097,4.5-2.438,7.333c0.326,0.167,2.438,0,2.438,0l-1.658,4.782l3.903-3.949c0,0,2.39,0.359,4.683,1.846
		c0.695,0,13.781,0,13.781,0l0.599-3.179l2.438-0.827c0,0-2.501-4.624-4.012-13.398s-3.972-13.575-3.893-13.929
		C43.506,65.905,34.54,64.645,34.54,64.645z"/>
	<g>
		<path fill="#FDF3E9" stroke="#000000" stroke-width="0.5" stroke-miterlimit="10" d="M34.833,75.89c0,0-2.221-8.5,5.556-4.833
			c-0.056,0.167,3.777,7,3.944,14.167C44.5,85.724,39.333,82.057,34.833,75.89z"/>
		<g>
			<path fill="#FDF3E9" stroke="#000000" stroke-width="0.5" stroke-miterlimit="10" d="M46.916,94.236c0,0-5.792-3.667-5.82,3
				c-0.361,0.167-5.861,0-5.861,0l-1.293,4.833l-0.873,1.097h3.333l3.39-3.763c0,0,1.61-2.096,2.61,0.833c-0.167,0,0,1.667,0,1.667
				v1.263h5.919v-8.597L46.916,94.236z"/>
			
				<line fill="none" stroke="#000000" stroke-width="0.5" stroke-miterlimit="10" x1="41.096" y1="97.236" x2="41.987" y2="99.339"/>
		</g>
	</g>
	<path stroke="#000000" stroke-width="0.5" stroke-miterlimit="10" d="M87.333,58.39"/>
	<path d="M80.833,28.557c0,0,2.833,5.523-1.333,14.262c-0.167-0.262-2.5,6.405-15.167,19.905c-0.333,0,5.607-6.416,8.72-13.875
		c0.113-0.125-6.163,6.541-11.441,11.541c0.055,0.333,10.888-13.732,8.721-16.366c0.167,0.366-2.833,3.367-5.167,8.033
		c0.333,0.167,1.5-6.143,1.667-9.238c-0.167,0.238-1.388,3.445-7.027,7.675c-0.473,0.23,5.875-8.104,3.618-15.604
		c0.41,0.167-0.978-3.5-9.034-2.667c-0.056,0.167-3.033,0-3.033,0s-2.995,0.833-3.842-1.5c-0.015,0.5-13.743,4.374-15.379,19.77
		c-0.636-0.104-3.469-12.103,6.698-21.937c-0.167,0-11.986-3-13.66,26.5c-0.507,0-3.007-11.5-1.84-18.5
		c0,0.5-7.689,14.833,3.739,28.833c0.261,0-18.238-17.166-17.905-30.833c0.167,0-1.856-15.167,17.905-25
		c0.095,0,18.094-6.333,30.928,0c0,0.333,7.167,3.371,9.333-2.814c0,0.481,2.908-4.352-4.879-4.186
		C62.333,2.89,75.5-3.277,66.667,14.89C66.667,14.89,75.833,18.057,80.833,28.557z"/>
	<path fill="#666666" d="M35.5,16.89c0,0,10.031-1.5,14.682-3.5C50.167,13.224,23.5,9.89,15,20.724c0-0.167-5.167,11.202,2,24.018
		c-0.167-0.018-3.35-18.517,7.325-22.184c0.008,0.333,4.059-2.167,8.7-2c-0.192,0.167-9.678,7.167-7.852,14
		c-0.007-0.333,2.54-6.667,6.517-8.333c-0.023,0-0.643,2.667,0,3.833c-0.357,0,5.81-8.167,11.31-9.833
		C42.167,20.557,40.167,17.39,35.5,16.89z"/>
	<path fill="#666666" d="M63.424,22.557c0,0-13.757,4-20.424,9.167c-0.167-0.167,7.348-9,20.424-10.167
		C63.5,21.557,63.424,22.557,63.424,22.557z"/>
	<path fill="#666666" d="M67,25.224c0,0,1.833,6.333,0,12.5c0,0,2.667-2.667,2.833-4.5c0,0.167,1.333,2.667,0,6.667
		c0,0.167,2-3.166,2.667-7.333c-0.167,0,2.5,5.035,1,12.184c0.167,0.316,10-12.851-2.167-23.184c-0.5,0,2.167,3.405,1.667,7.203
		c-0.333,0.13-0.674-3.536-4.17-5.703c0.004,0,1.837,2.405,1.17,5.703C69.667,29.057,69.333,26.89,67,25.224z"/>
	<g>
		<line fill="none" stroke="#000000" stroke-width="0.5" stroke-miterlimit="10" x1="47.515" y1="48.616" x2="39.39" y2="48.616"/>
		<g>
			<path fill="#FFFFFF" stroke="#000000" stroke-width="0.5" stroke-linecap="round" stroke-miterlimit="10" d="M40.454,51.323
				c0,0.783-0.634,1.417-1.417,1.417H25.743c-0.783,0-1.417-0.635-1.417-1.417v-7.086c0-0.783,0.635-1.417,1.417-1.417h13.294
				c0.783,0,1.417,0.635,1.417,1.417V51.323z"/>
			<ellipse cx="26.437" cy="44.842" rx="0.483" ry="0.494"/>
			
				<line fill="none" stroke="#000000" stroke-width="0.5" stroke-linecap="round" stroke-miterlimit="10" x1="25.174" y1="47.899" x2="30.049" y2="44.024"/>
			
				<line fill="none" stroke="#000000" stroke-width="0.5" stroke-linecap="round" stroke-miterlimit="10" x1="26.685" y1="48.132" x2="30.049" y2="45.458"/>
		</g>
		<g>
			<path fill="#FFFFFF" stroke="#000000" stroke-width="0.5" stroke-linecap="round" stroke-miterlimit="10" d="M62.454,51.323
				c0,0.783-0.634,1.417-1.417,1.417H47.743c-0.783,0-1.417-0.635-1.417-1.417v-7.086c0-0.783,0.635-1.417,1.417-1.417h13.294
				c0.783,0,1.417,0.635,1.417,1.417V51.323z"/>
			<ellipse cx="50.182" cy="45.56" rx="0.483" ry="0.494"/>
			
				<line fill="none" stroke="#000000" stroke-width="0.5" stroke-linecap="round" stroke-miterlimit="10" x1="48.919" y1="48.616" x2="53.794" y2="44.741"/>
			
				<line fill="none" stroke="#000000" stroke-width="0.5" stroke-linecap="round" stroke-miterlimit="10" x1="50.431" y1="48.849" x2="53.794" y2="46.175"/>
		</g>
	</g>
	<g>
		<path fill="#FFFFFF" stroke="#000000" stroke-width="0.7" stroke-linecap="round" stroke-miterlimit="10" d="M64.19,73.804
			c0,0,3.375,1.5,9,1.25c-0.125,0.125,8.936-7.25,13.905,2.625c0.22,0.125,4.47,11.5-6.28,12c0.125,0.25-13.125,3-16.625-3.75
			c-0.125,0-2.75-4.151,2.5-7.5C66.565,78.179,64.565,77.929,64.19,73.804z"/>
		<text transform="matrix(0.9095 0.4156 -0.4156 0.9095 68.8296 83.6123)" font-family="'MicrosoftYaHei'" font-size="12">高</text>
	</g>
	<text transform="matrix(0.9721 0.2346 -0.2346 0.9721 84.7178 41.3813)" font-family="'MicrosoftYaHei'" font-size="12">？</text>
	
		<line fill="none" stroke="#FF7BAC" stroke-linecap="round" stroke-miterlimit="10" x1="27.072" y1="55.057" x2="30.685" y2="55.057"/>
	
		<line fill="none" stroke="#FF7BAC" stroke-linecap="round" stroke-miterlimit="10" x1="32.136" y1="55.057" x2="33.025" y2="55.057"/>
	<line fill="none" stroke="#000000" stroke-linecap="round" stroke-miterlimit="10" x1="40.39" y1="60.39" x2="43" y2="60.39"/>
	<line fill="none" stroke="#FF7BAC" stroke-linecap="round" stroke-miterlimit="10" x1="55.11" y1="55.057" x2="56" y2="55.057"/>
	<line fill="none" stroke="#FF7BAC" stroke-linecap="round" stroke-miterlimit="10" x1="58" y1="55.057" x2="61.612" y2="55.057"/>
</g>
</svg>
