<?xml version="1.0" encoding="utf-8"?>
<!-- Generator: Adobe Illustrator 15.0.0, SVG Export Plug-In . SVG Version: 6.00 Build 0)  -->
<!DOCTYPE svg PUBLIC "-//W3C//DTD SVG 1.1//EN" "http://www.w3.org/Graphics/SVG/1.1/DTD/svg11.dtd">
<svg version="1.1" xmlns="http://www.w3.org/2000/svg" xmlns:xlink="http://www.w3.org/1999/xlink" x="0px" y="0px" width="273px"
	 height="362.89px" viewBox="0 0 273 362.89" enable-background="new 0 0 273 362.89" xml:space="preserve">
<g id="图层_2">
	<g>
		<path d="M115.78,88.495c0,2.211-1.849,3.316-5.547,3.316H91.305c-3.595,0-5.392-1.105-5.392-3.316V58.859
			c0-2.226,1.797-3.339,5.392-3.339h18.928c3.698,0,5.547,1.113,5.547,3.339v8.487h-9.038v-7.166H94.99v26.968h11.753v-7.629h9.038
			V88.495z"/>
		<path d="M152.008,88.495c0,2.211-1.836,3.316-5.508,3.316h-18.269c-3.646,0-5.469-1.105-5.469-3.316v-8.649h9.077v7.397h11.093
			v-7.119L124.74,69.828c-1.319-0.757-1.979-1.724-1.979-2.898v-8.07c0-2.226,1.823-3.339,5.469-3.339H146.5
			c3.671,0,5.508,1.098,5.508,3.292v8.116h-9.076v-6.841h-11.093v6.563L150.03,76.9c1.319,0.742,1.978,1.724,1.978,2.945V88.495z"/>
		<path d="M188.313,88.495c0,2.211-1.836,3.316-5.508,3.316h-18.269c-3.646,0-5.469-1.105-5.469-3.316v-8.649h9.077v7.397h11.093
			v-7.119l-18.191-10.296c-1.319-0.757-1.979-1.724-1.979-2.898v-8.07c0-2.226,1.823-3.339,5.469-3.339h18.269
			c3.671,0,5.508,1.098,5.508,3.292v8.116h-9.076v-6.841h-11.093v6.563l18.191,10.25c1.319,0.742,1.978,1.724,1.978,2.945V88.495z"
			/>
	</g>
	<polygon fill="#1673B6" points="50,104.388 65.4,283.321 138,304.588 211.803,283.321 226,104.388 	"/>
</g>
<g id="图层_3">
	<polygon fill="#92D0F7" points="139.467,118.321 139.467,286.254 196.667,270.121 211.803,118.321 	"/>
</g>
<g id="图层_4">
	<polygon fill="#FFFFFF" points="111.6,218.054 116,234.188 138,241.521 163.667,233.455 163.667,207.788 116.733,207.788 
		111.6,185.054 166.6,185.054 166.6,162.321 86.667,162.321 86.667,139.588 195.933,139.588 183.467,249.588 141.3,264.988 
		92.533,251.788 91.067,218.054 	"/>
</g>
</svg>
