<?xml version="1.0" encoding="utf-8"?>
<!-- Generator: Adobe Illustrator 15.0.0, SVG Export Plug-In . SVG Version: 6.00 Build 0)  -->
<!DOCTYPE svg PUBLIC "-//W3C//DTD SVG 1.1//EN" "http://www.w3.org/Graphics/SVG/1.1/DTD/svg11.dtd">
<svg version="1.1" xmlns="http://www.w3.org/2000/svg" xmlns:xlink="http://www.w3.org/1999/xlink" x="0px" y="0px" width="273px"
	 height="362.89px" viewBox="0 0 273 362.89" enable-background="new 0 0 273 362.89" xml:space="preserve">
<g id="图层_2">
	<g>
		<path d="M107.699,56.218c0,3.015-2.521,4.522-7.564,4.522H74.324c-4.901,0-7.352-1.507-7.352-4.522V15.807
			c0-3.036,2.451-4.553,7.352-4.553h25.812c5.042,0,7.564,1.518,7.564,4.553V27.38H95.375v-9.771H79.349v36.775h16.026V43.981
			h12.324V56.218z"/>
		<path d="M157.101,56.218c0,3.015-2.504,4.522-7.511,4.522h-24.912c-4.972,0-7.458-1.507-7.458-4.522V44.423h12.377V54.51h15.127
			v-9.708l-24.806-14.04c-1.798-1.033-2.698-2.35-2.698-3.953V15.807c0-3.036,2.486-4.553,7.458-4.553h24.912
			c5.007,0,7.511,1.497,7.511,4.49v11.067h-12.377v-9.328h-15.127v8.949l24.807,13.977c1.798,1.012,2.697,2.351,2.697,4.016V56.218z
			"/>
		<path d="M206.608,56.218c0,3.015-2.504,4.522-7.511,4.522h-24.912c-4.972,0-7.458-1.507-7.458-4.522V44.423h12.377V54.51h15.127
			v-9.708l-24.806-14.04c-1.798-1.033-2.698-2.35-2.698-3.953V15.807c0-3.036,2.486-4.553,7.458-4.553h24.912
			c5.007,0,7.511,1.497,7.511,4.49v11.067h-12.377v-9.328h-15.127v8.949l24.807,13.977c1.798,1.012,2.697,2.351,2.697,4.016V56.218z
			"/>
	</g>
	<polygon fill="#1673B6" points="18,77.89 39,321.89 138,350.89 238.64,321.89 258,77.89 	"/>
</g>
<g id="图层_3">
	<polygon fill="#92D0F7" points="140,96.89 140,325.89 218,303.89 238.64,96.89 	"/>
</g>
<g id="图层_4">
	<polygon fill="#FFFFFF" points="102,232.89 108,254.89 138,264.89 173,253.89 173,218.89 109,218.89 102,187.89 177,187.89 
		177,156.89 68,156.89 68,125.89 217,125.89 200,275.89 142.5,296.89 76,278.89 74,232.89 	"/>
</g>
</svg>
