<?xml version="1.0" encoding="utf-8"?>
<!-- Generator: Adobe Illustrator 15.0.0, SVG Export Plug-In . SVG Version: 6.00 Build 0)  -->
<!DOCTYPE svg PUBLIC "-//W3C//DTD SVG 1.1//EN" "http://www.w3.org/Graphics/SVG/1.1/DTD/svg11.dtd">
<svg version="1.1" xmlns="http://www.w3.org/2000/svg" xmlns:xlink="http://www.w3.org/1999/xlink" x="0px" y="0px" width="273px"
	 height="362.89px" viewBox="0 0 273 362.89" enable-background="new 0 0 273 362.89" xml:space="preserve">
<g id="图层_2">
	<g>
		<path d="M133.299,60.74H98.972V11.253h34.01v6.545h-21.633V32.25h18.618v6.419h-18.618v15.526h21.951V60.74z"/>
		<path d="M181.431,56.218c0,3.015-2.504,4.522-7.511,4.522h-24.912c-4.972,0-7.458-1.507-7.458-4.522V44.423h12.377V54.51h15.127
			v-9.708l-24.807-14.04c-1.798-1.033-2.698-2.35-2.698-3.953V15.807c0-3.036,2.486-4.553,7.458-4.553h24.912
			c5.007,0,7.511,1.497,7.511,4.49v11.067h-12.376v-9.328h-15.127v8.949l24.807,13.977c1.798,1.012,2.697,2.351,2.697,4.016V56.218z
			"/>
	</g>
	<polygon fill="#D6BA33" points="18,77.89 39,321.89 138,350.89 238.64,321.89 258,77.89 	"/>
</g>
<g id="图层_3">
	<polygon fill="#FAE12E" points="140,96.89 140,325.89 218,303.89 238.64,96.89 	"/>
</g>
<g id="图层_4">
</g>
<g id="图层_5">
	<path fill="#FFFFFF" d="M212.5,130.89h-149l14,153l59.5,14l61.5-17l10-88l-109,1l-5-30l114-4L212.5,130.89z M174,218.89l-5,38
		l-32.5,10l-27.5-13l-7-35H174z"/>
</g>
</svg>
