<?xml version="1.0" encoding="utf-8"?>
<!-- Generator: Adobe Illustrator 15.0.0, SVG Export Plug-In . SVG Version: 6.00 Build 0)  -->
<!DOCTYPE svg PUBLIC "-//W3C//DTD SVG 1.1//EN" "http://www.w3.org/Graphics/SVG/1.1/DTD/svg11.dtd">
<svg version="1.1" xmlns="http://www.w3.org/2000/svg" xmlns:xlink="http://www.w3.org/1999/xlink" x="0px" y="0px" width="273px"
	 height="362.89px" viewBox="0 0 273 362.89" enable-background="new 0 0 273 362.89" xml:space="preserve">
<g id="图层_2">
	<g>
		<path d="M134.588,92.694h-24.913V56.779h24.683v4.75h-15.7v10.488h13.512v4.659h-13.512v11.268h15.93V92.694z"/>
		<path d="M169.52,89.412c0,2.188-1.817,3.282-5.451,3.282h-18.08c-3.608,0-5.413-1.094-5.413-3.282v-8.56h8.982v7.32h10.979v-7.045
			l-18.003-10.189c-1.305-0.75-1.958-1.706-1.958-2.869v-7.986c0-2.203,1.804-3.304,5.413-3.304h18.08
			c3.634,0,5.451,1.086,5.451,3.258v8.032h-8.982V61.3h-10.979v6.495l18.003,10.144c1.305,0.734,1.958,1.706,1.958,2.915V89.412z"/>
	</g>
	<polygon fill="#D6BA33" points="50.91,105.142 66.151,282.224 138,303.271 211.039,282.224 225.09,105.142 	"/>
</g>
<g id="图层_3">
	<polygon fill="#FAE12E" points="139.451,118.931 139.451,285.127 196.06,269.161 211.039,118.931 	"/>
</g>
<g id="图层_4">
</g>
<g id="图层_5">
	<path fill="#FFFFFF" d="M192.068,143.606H83.932l10.16,111.039l43.182,10.161l44.634-12.338l7.258-63.866l-79.107,0.726
		l-3.629-21.772l82.736-2.903L192.068,143.606z M164.127,207.472l-3.628,27.578l-23.587,7.258l-19.958-9.435l-5.081-25.401H164.127z
		"/>
</g>
</svg>
