<?xml version="1.0" encoding="utf-8"?>
<!-- Generator: Adobe Illustrator 22.0.0, SVG Export Plug-In . SVG Version: 6.00 Build 0)  -->
<svg version="1.1" id="图层_1" xmlns="http://www.w3.org/2000/svg" xmlns:xlink="http://www.w3.org/1999/xlink" x="0px" y="0px"
	 viewBox="0 0 325 325" style="enable-background:new 0 0 325 325;" xml:space="preserve">
<style type="text/css">
	.st0{fill:#E2690E;}
</style>
<g transform="translate(0.000000,325.000000) scale(0.100000,-0.100000)">
	<path class="st0" d="M1566,3235c-43-11-66-30-215-179l-166-166l179-179l180-180l65,1c125,2,209-46,250-143c18-40,22-66,19-120
		l-3-69l175-175l175-175l60,6c144,14,261-84,272-229c7-82-22-152-85-207c-51-45-93-60-172-60c-72,0-126,26-177,84
		c-54,62-67,102-60,191l5,72l-159,159l-159,159v-438c0-240,4-437,8-437c19,0,86-76,104-118c25-57,25-147,0-204
		c-41-93-147-155-250-145c-71,6-111,25-162,78c-107,111-84,304,46,381l34,20v448c0,425-1,449-18,454c-32,10-84,69-108,121
		c-25,52-30,109-15,161c9,31,5,35-173,213l-181,181l-507-507C44,1747,22,1723,12,1678c-11-57-2-114,26-159C69,1468,1500,45,1538,25
		c40-19,114-23,162-7c26,9,223,200,782,759c719,721,746,750,756,795c11,57,2,114-26,159c-30,49-1461,1474-1497,1492
		C1669,3245,1620,3249,1566,3235z"/>
</g>
</svg>
