<?xml version="1.0" encoding="utf-8"?>
<!-- Generator: Adobe Illustrator 15.0.0, SVG Export Plug-In . SVG Version: 6.00 Build 0)  -->
<!DOCTYPE svg PUBLIC "-//W3C//DTD SVG 1.1//EN" "http://www.w3.org/Graphics/SVG/1.1/DTD/svg11.dtd">
<svg version="1.1" xmlns="http://www.w3.org/2000/svg" xmlns:xlink="http://www.w3.org/1999/xlink" x="0px" y="0px" width="273px"
	 height="362.89px" viewBox="0 0 273 362.89" enable-background="new 0 0 273 362.89" xml:space="preserve">
<g id="图层_2">
	<g>
		<path d="M94.598,60.74H82.116V38.542H65.349V60.74H52.972V11.253h12.377v20.395h16.767V11.253h12.482V60.74z"/>
		<path d="M140.403,17.799h-13.646V60.74h-12.324V17.799h-13.646v-6.545h39.617V17.799z"/>
		<path d="M196.734,60.74h-11.901V36.329c0-1.286,0.246-3.078,0.74-5.375l-10.684,25.265h-6.294l-10.737-25.265
			c0.493,2.34,0.74,4.132,0.74,5.375V60.74h-11.901V11.253h11.689l13.012,27.352c0.14,0.296,0.246,1.043,0.317,2.245
			c0-0.526,0.105-1.275,0.317-2.245l13.012-27.352h11.689V60.74z"/>
		<path d="M239.153,60.74h-32.529V11.253h12.377v42.877h20.152V60.74z"/>
	</g>
	<polygon fill="#E44E25" points="18,77.89 39,321.89 138,350.89 238.64,321.89 258,77.89 	"/>
</g>
<g id="图层_3">
	<polygon fill="#F98D73" points="140,96.89 140,325.89 218,303.89 238.64,96.89 	"/>
</g>
<g id="图层_4">
</g>
<g id="图层_5">
	<polygon fill="#FFFFFF" points="65.227,215.255 179.011,215.255 173.916,256.862 140.772,267.901 101.739,258.561 97.494,234.785 
		65.227,234.785 72.02,279.789 140.772,301.017 207.032,281.487 214.674,182.988 95.795,182.988 92.399,150.721 214.674,150.721 
		222.316,118.454 55.886,118.454 64.377,209.735 	"/>
</g>
</svg>
