<?xml version="1.0" encoding="utf-8"?>
<!-- Generator: Adobe Illustrator 15.0.0, SVG Export Plug-In . SVG Version: 6.00 Build 0)  -->
<!DOCTYPE svg PUBLIC "-//W3C//DTD SVG 1.1//EN" "http://www.w3.org/Graphics/SVG/1.1/DTD/svg11.dtd">
<svg version="1.1" xmlns="http://www.w3.org/2000/svg" xmlns:xlink="http://www.w3.org/1999/xlink" x="0px" y="0px" width="273px"
	 height="362.89px" viewBox="0 0 273 362.89" enable-background="new 0 0 273 362.89" xml:space="preserve">
<g id="图层_2">
	<g>
		<path d="M106.096,91.608H96.92V75.291H84.595v16.317h-9.098V55.231h9.098v14.992H96.92V55.231h9.176V91.608z"/>
		<path d="M139.766,60.043h-10.031v31.565h-9.059V60.043h-10.031v-4.812h29.121V60.043z"/>
		<path d="M181.172,91.608h-8.748V73.664c0-0.945,0.181-2.262,0.544-3.951l-7.854,18.572h-4.627l-7.893-18.572
			c0.363,1.72,0.544,3.037,0.544,3.951v17.944h-8.748V55.231h8.592l9.564,20.106c0.104,0.217,0.181,0.767,0.233,1.65
			c0-0.387,0.078-0.938,0.233-1.65l9.564-20.106h8.592V91.608z"/>
		<path d="M212.354,91.608h-23.911V55.231h9.098V86.75h14.813V91.608z"/>
	</g>
	<polygon fill="#E44E25" points="49.791,104.215 65.228,283.573 138,304.89 211.978,283.573 226.209,104.215 	"/>
</g>
<g id="图层_3">
	<polygon fill="#F98D73" points="139.47,118.181 139.47,286.514 196.806,270.342 211.978,118.181 	"/>
</g>
<g id="图层_4">
</g>
<g id="图层_5">
	<polygon fill="#FFFFFF" points="84.506,205.188 168.146,205.188 164.401,235.772 140.038,243.887 111.346,237.021 108.225,219.544 
		84.506,219.544 89.5,252.625 140.038,268.23 188.744,253.874 194.361,181.469 106.976,181.469 104.48,157.75 194.361,157.75 
		199.979,134.032 77.641,134.032 83.882,201.131 	"/>
</g>
</svg>
