<?xml version="1.0" encoding="utf-8"?>
<!-- Generator: Adobe Illustrator 15.0.0, SVG Export Plug-In . SVG Version: 6.00 Build 0)  -->
<!DOCTYPE svg PUBLIC "-//W3C//DTD SVG 1.1//EN" "http://www.w3.org/Graphics/SVG/1.1/DTD/svg11.dtd">
<svg version="1.1" xmlns="http://www.w3.org/2000/svg" xmlns:xlink="http://www.w3.org/1999/xlink" x="0px" y="0px" width="273px"
	 height="362.89px" viewBox="0 0 273 362.89" enable-background="new 0 0 273 362.89" xml:space="preserve">
<g id="图层_2">
	<g>
		<path d="M47.109,52.703c0,1.724-1.452,2.586-4.356,2.586H29.322c-2.843,0-4.265-0.862-4.265-2.586V45.74h7.048v5.914h7.926V26.986
			h7.079V52.703z"/>
		<path d="M72.066,55.289h-6.625v-0.633c-1.573,0.145-3.146,0.289-4.719,0.434c-2.057,0.181-3.62,0.271-4.688,0.271
			c-2.521,0-3.782-0.741-3.782-2.224v-6.583c0-1.507,1.301-2.261,3.902-2.261h9.348v-4.196h-6.625v2.604h-6.262v-3.418
			c0-1.507,1.301-2.261,3.902-2.261h11.707c2.561,0,3.842,0.753,3.842,2.261V55.289z M65.501,51.997v-4.901h-6.625v5.045
			L65.501,51.997z"/>
		<path d="M97.718,37.023l-7.805,18.302h-6.625l-7.804-18.302h7.109l4.023,12.008l4.023-12.008H97.718z"/>
		<path d="M120.83,55.289h-6.625v-0.633c-1.573,0.145-3.146,0.289-4.719,0.434c-2.057,0.181-3.62,0.271-4.688,0.271
			c-2.521,0-3.782-0.741-3.782-2.224v-6.583c0-1.507,1.301-2.261,3.902-2.261h9.348v-4.196h-6.625v2.604h-6.262v-3.418
			c0-1.507,1.301-2.261,3.902-2.261h11.707c2.561,0,3.842,0.753,3.842,2.261V55.289z M114.266,51.997v-4.901h-6.625v5.045
			L114.266,51.997z"/>
		<path d="M148.842,52.703c0,1.724-1.433,2.586-4.296,2.586h-14.248c-2.843,0-4.265-0.862-4.265-2.586v-6.746h7.079v5.769h8.652
			v-5.552l-14.188-8.03c-1.028-0.59-1.542-1.344-1.542-2.26V29.59c0-1.736,1.422-2.604,4.265-2.604h14.248
			c2.863,0,4.296,0.856,4.296,2.568v6.33h-7.079v-5.335h-8.652v5.118l14.188,7.994c1.028,0.579,1.543,1.344,1.543,2.297V52.703z"/>
		<path d="M173.859,53.028c0,1.507-1.281,2.261-3.842,2.261h-12.01c-2.602,0-3.902-0.753-3.902-2.261V39.284
			c0-1.507,1.301-2.261,3.902-2.261h12.01c2.561,0,3.842,0.753,3.842,2.261v4.34h-6.746v-3.147h-6.201v11.375h6.201v-3.49h6.746
			V53.028z"/>
		<path d="M198.09,44.655h-6.867v-4.178l-5.476,0.072v14.739h-6.927V37.023h6.927v0.669c1.432-0.156,2.854-0.313,4.266-0.47
			c1.714-0.181,3.146-0.271,4.295-0.271c2.521,0,3.781,0.741,3.781,2.224V44.655z"/>
		<path d="M209.041,34.4h-6.927v-4.268h6.927V34.4z M208.98,55.289h-6.806V37.023h6.806V55.289z"/>
		<path d="M234.512,51.617c0,1.483-0.888,2.52-2.662,3.111c-1.291,0.422-3.248,0.633-5.869,0.633c-0.605,0-1.458-0.012-2.556-0.036
			c-1.1-0.024-1.891-0.036-2.375-0.036v6.673h-6.927V37.023h6.927v0.669c1.613-0.145,3.227-0.295,4.84-0.452
			c2.037-0.192,3.65-0.289,4.84-0.289c2.521,0,3.781,0.741,3.781,2.224V51.617z M227.554,50.478V40.477l-6.504,0.072v11.303h4.296
			C226.818,51.853,227.554,51.395,227.554,50.478z"/>
		<path d="M252.602,55.289h-7.684c-2.562,0-3.842-0.753-3.842-2.261V40.549h-3.267v-3.526h3.267v-4.955h6.897v4.955h4.447v3.526
			h-4.447v11.213h4.628V55.289z"/>
	</g>
	<polygon fill="#548A56" points="18,77.89 39,321.89 138,350.89 238.64,321.89 258,77.89 	"/>
</g>
<g id="图层_3">
	<polygon fill="#67A969" points="140,96.89 140,325.89 218,303.89 238.64,96.89 	"/>
</g>
<g id="图层_4">
</g>
<g id="图层_5">
	<polygon fill="#FFFFFF" points="65.51,220.812 178.104,220.812 172.018,251.243 131.697,266.458 89.854,252.004 92.897,238.31 
		65.51,239.832 60.945,266.458 127.132,294.607 199.406,267.98 209.54,194.185 98.223,190.381 102.027,162.993 146.152,147.778 
		185.712,162.993 184.19,177.448 209.54,175.166 215.382,147.778 149.956,120.39 79.204,143.974 	"/>
</g>
</svg>
