<?xml version="1.0" encoding="utf-8"?>
<!-- Generator: Adobe Illustrator 15.0.0, SVG Export Plug-In . SVG Version: 6.00 Build 0)  -->
<!DOCTYPE svg PUBLIC "-//W3C//DTD SVG 1.1//EN" "http://www.w3.org/Graphics/SVG/1.1/DTD/svg11.dtd">
<svg version="1.1" xmlns="http://www.w3.org/2000/svg" xmlns:xlink="http://www.w3.org/1999/xlink" x="0px" y="0px" width="273px"
	 height="362.89px" viewBox="0 0 273 362.89" enable-background="new 0 0 273 362.89" xml:space="preserve">
<g id="图层_2">
	<g>
		<path d="M69.774,86.13c0,1.294-1.09,1.941-3.27,1.941H56.422c-2.134,0-3.202-0.647-3.202-1.941v-5.226h5.291v4.439h5.949V66.827
			h5.313V86.13z"/>
		<path d="M88.507,88.072h-4.973v-0.475c-1.181,0.108-2.361,0.217-3.542,0.326c-1.544,0.136-2.717,0.204-3.52,0.204
			c-1.893,0-2.838-0.557-2.838-1.669v-4.941c0-1.131,0.977-1.697,2.929-1.697h7.017v-3.149h-4.973v1.955h-4.701v-2.565
			c0-1.131,0.977-1.697,2.929-1.697h8.788c1.922,0,2.884,0.566,2.884,1.697V88.072z M83.58,85.601v-3.679h-4.973v3.788L83.58,85.601
			z"/>
		<path d="M107.763,74.361l-5.858,13.738h-4.973l-5.858-13.738h5.336l3.02,9.014l3.02-9.014H107.763z"/>
		<path d="M125.111,88.072h-4.973v-0.475c-1.181,0.108-2.361,0.217-3.542,0.326c-1.544,0.136-2.717,0.204-3.52,0.204
			c-1.893,0-2.838-0.557-2.838-1.669v-4.941c0-1.131,0.977-1.697,2.929-1.697h7.017v-3.149h-4.973v1.955h-4.701v-2.565
			c0-1.131,0.977-1.697,2.929-1.697h8.788c1.922,0,2.884,0.566,2.884,1.697V88.072z M120.184,85.601v-3.679h-4.973v3.788
			L120.184,85.601z"/>
		<path d="M146.138,86.13c0,1.294-1.075,1.941-3.224,1.941h-10.695c-2.134,0-3.202-0.647-3.202-1.941v-5.063h5.313v4.331h6.494
			V81.23l-10.649-6.027c-0.772-0.443-1.158-1.009-1.158-1.697v-4.724c0-1.303,1.067-1.955,3.202-1.955h10.695
			c2.149,0,3.224,0.643,3.224,1.927v4.751h-5.313v-4.005h-6.494v3.842l10.65,6c0.772,0.434,1.158,1.009,1.158,1.724V86.13z"/>
		<path d="M164.917,86.375c0,1.131-0.961,1.697-2.884,1.697h-9.015c-1.953,0-2.929-0.565-2.929-1.697V76.058
			c0-1.131,0.977-1.697,2.929-1.697h9.015c1.922,0,2.884,0.566,2.884,1.697v3.258h-5.063v-2.362h-4.655v8.539h4.655v-2.62h5.063
			V86.375z"/>
		<path d="M183.105,80.09h-5.154v-3.136l-4.11,0.054v11.063h-5.2V74.361h5.2v0.502c1.075-0.118,2.142-0.235,3.202-0.353
			c1.287-0.136,2.361-0.204,3.224-0.204c1.892,0,2.838,0.557,2.838,1.67V80.09z"/>
		<path d="M191.325,72.393h-5.2v-3.204h5.2V72.393z M191.28,88.072h-5.109V74.361h5.109V88.072z"/>
		<path d="M210.444,85.316c0,1.113-0.667,1.892-1.998,2.335c-0.969,0.317-2.438,0.475-4.405,0.475c-0.454,0-1.094-0.009-1.919-0.027
			c-0.825-0.019-1.419-0.027-1.782-0.027v5.009h-5.2v-18.72h5.2v0.502c1.211-0.108,2.422-0.222,3.633-0.339
			c1.529-0.145,2.74-0.217,3.633-0.217c1.892,0,2.838,0.557,2.838,1.67V85.316z M205.222,84.461v-7.507l-4.882,0.054v8.484h3.224
			C204.669,85.493,205.222,85.149,205.222,84.461z"/>
		<path d="M224.023,88.072h-5.768c-1.923,0-2.884-0.565-2.884-1.697v-9.367h-2.452v-2.647h2.452v-3.719h5.177v3.719h3.338v2.647
			h-3.338v8.417h3.474V88.072z"/>
	</g>
	<polygon fill="#548A56" points="47.924,105.038 63.688,288.191 138,309.96 213.543,288.191 228.076,105.038 	"/>
</g>
<g id="图层_3">
	<polygon fill="#67A969" points="139.501,119.3 139.501,291.194 198.05,274.68 213.543,119.3 	"/>
</g>
<g id="图层_4">
</g>
<g id="图层_5">
	<polygon fill="#FFFFFF" points="83.587,212.319 168.103,212.319 163.535,235.162 133.269,246.583 101.86,235.733 104.145,225.454 
		83.587,226.596 80.161,246.583 129.842,267.712 184.093,247.725 191.7,192.333 108.142,189.477 110.997,168.919 144.119,157.498 
		173.814,168.919 172.672,179.769 191.7,178.056 196.085,157.498 146.974,136.939 93.866,154.643 	"/>
</g>
</svg>
