<?xml version="1.0" encoding="utf-8"?>
<!-- Generator: Adobe Illustrator 15.0.0, SVG Export Plug-In . SVG Version: 6.00 Build 0)  -->
<!DOCTYPE svg PUBLIC "-//W3C//DTD SVG 1.1//EN" "http://www.w3.org/Graphics/SVG/1.1/DTD/svg11.dtd">
<svg version="1.1" xmlns="http://www.w3.org/2000/svg" xmlns:xlink="http://www.w3.org/1999/xlink" x="0px" y="0px"
	 width="368.724px" height="328.104px" viewBox="0 0 368.724 328.104" enable-background="new 0 0 368.724 328.104"
	 xml:space="preserve">
<g id="图层_2">
	<path fill="#FFFFFF" stroke="#B5B5B6" stroke-width="2" stroke-miterlimit="10" d="M86.755,113.674l6.734,6.734
		c0,0-19.165-1.554-18.647,13.467c0.518,1.036-2.59,19.165,15.021,18.647c1.036,0.518,19.683,0.011,19.683,0.011
		s1.036,17.083,20.719,39.873c0.518,1.554-21.237,18.647-21.237,18.647s-24.345-3.108-31.079,12.431
		c-1.036-1.036-10.877,25.898,12.432,35.74c0.518,0,0,14.585,19.683,18.647c0,0,27.452,3.626,30.042-21.754
		c0.518-0.518,17.093,23.826,47.135,19.683c0.518-0.518,21.237,2.072,40.92-17.611c-0.518-0.518,3.625,22.113,28.488,19.862
		c1.036,0.339,19.165-3.805,19.165-19.344c0.518,0,23.827-1.036,15.021-36.258c0.518,1.554-8.806-16.575-30.561-7.77
		c0.518,0-20.719-22.791-20.719-22.791s17.094-12.432,21.755-38.848c0.518,1.036,22.791-2.072,22.791-2.072
		s19.51-2.589,8.719-26.416c0.604,0-6.647-6.216-17.007-3.626c0.518,0,1.554-5.698,9.323-7.252c0.518,0,17.749,5.18,25.381-7.77
		c0-0.518,15.021-24.863-10.359-39.366c0-1.036-10.36-22.273-29.525-16.057c0.519,0-24.862-1.036-21.236,30.561
		c0.518,0.518-5.18,5.18-5.18,5.18s-14.564-26.935-60.115-27.971c-0.488,0-38.818,0.518-59.536,25.381
		c-0.518,0-5.698-1.037-5.18-8.288c-0.518,1.036,3.108-26.62-23.309-26c-0.518,0.102-20.719-1.453-24.863,16.159
		c0,0-24.863,8.288-13.467,37.812C57.231,104.351,68.625,120.926,86.755,113.674z"/>
</g>
<g id="图层_3">
	
		<path fill="#FFFFFF" stroke="#000000" stroke-width="5" stroke-linecap="round" stroke-linejoin="round" stroke-miterlimit="10" d="
		M82.611,76.898c0,0-19.683-1.036-16.057,17.611c0.518,0,5.697,17.61,22.791,4.662c-1.036,0,152.801,144.514,152.801,144.514
		s-10.877,14.503,7.252,22.273c0.518,1.036,21.236,2.072,15.539-17.093c-0.518,1.036,22.272,0.518,15.539-21.237
		c0,1.554-7.251-17.093-22.79-0.518c0.518,0-152.801-143.996-152.801-143.996s11.913-14.503-6.734-23.309
		C97.114,60.323,80.021,58.77,82.611,76.898z"/>
	
		<path fill="#FFFFFF" stroke="#000000" stroke-width="5" stroke-linecap="round" stroke-linejoin="round" stroke-miterlimit="10" d="
		M288.692,79.155c0,0,2.483-19.553-16.379-17.311c-0.038,0.516-17.983,4.384-6.329,22.385
		c0.077-1.033-155.382,141.735-155.382,141.735s-13.662-11.917-22.747,5.59c-1.071,0.44-3.631,21.026,15.902,16.757
		c-0.995-0.593-2.158,22.173,20.034,17.062c-1.549-0.114,17.581-5.971,2.196-22.69c-0.038,0.517,154.866-141.773,154.866-141.773
		s13.586,12.95,23.742-4.997C304.154,94.84,306.963,77.909,288.692,79.155z"/>
</g>
<g id="图层_4">
	<g>
		<path fill="#FFFFFF" stroke="#000000" stroke-width="5" stroke-miterlimit="10" d="M147.885,192.146
			c0,0-17.855,43.61,7.008,63.811c0.519,0,25.381,22.273,56.978,0c0.518,0,19.165-11.914,11.395-48.689
			c0.518,0.519-2.591-10.561-5.698-15.122C217.931,193.379,181.797,216.907,147.885,192.146z"/>
		<circle fill="#FFFFFF" stroke="#000000" stroke-width="5" stroke-miterlimit="10" cx="183.905" cy="136.167" r="66.559"/>
		<path fill="#1E4D69" stroke="#000000" stroke-width="5" stroke-miterlimit="10" d="M122.116,111.386h123.579
			c0,0-17.245-38.152-61.79-41.777C183.905,69.608,147.346,68.215,122.116,111.386z"/>
		<path fill="#38AA6A" stroke="#000000" stroke-width="5" stroke-miterlimit="10" d="M117.84,128.047h132.131
			c0,0,1.438-7.203-4.276-16.662H122.116C122.116,111.386,118.211,123.919,117.84,128.047z"/>
		<path fill="#224D62" stroke="#000000" stroke-width="5" stroke-miterlimit="10" d="M87.731,128.047h193.204
			c0,0,10.359,4.754,0,12.523H87.731C87.731,140.571,76.336,134.689,87.731,128.047z"/>
		<circle cx="158.564" cy="164.98" r="17.093"/>
		<circle cx="209.247" cy="164.98" r="17.093"/>
		<ellipse cx="183.257" cy="188.781" rx="6.992" ry="5.678"/>
		<path fill="#FFFFFF" stroke="#000000" stroke-width="5" stroke-miterlimit="10" d="M141.684,223.479c0,0,48.106,29.001,83.466,0
			c-0.018-1.058-1.885-16.211-1.885-16.211s-25.856,25.739-79.771,0C143.482,207.328,141.684,223.479,141.684,223.479z"/>
		<line fill="#FFFFFF" stroke="#000000" stroke-width="5" stroke-miterlimit="10" x1="163.65" y1="201.211" x2="158.563" y2="229"/>
		
			<line fill="#FFFFFF" stroke="#000000" stroke-width="5" stroke-miterlimit="10" x1="183.905" y1="202.727" x2="184.103" y2="236.269"/>
		
			<line fill="#FFFFFF" stroke="#000000" stroke-width="5" stroke-miterlimit="10" x1="203.016" y1="201.211" x2="209.246" y2="232.66"/>
		<path fill="none" stroke="#000000" stroke-width="5" stroke-linecap="round" stroke-miterlimit="10" d="M141.471,102.797
			c0,0,3.014-9.065,13.374-12.302"/>
		
			<line fill="none" stroke="#000000" stroke-width="5" stroke-linecap="round" stroke-miterlimit="10" x1="154.844" y1="102.797" x2="163.65" y2="93.991"/>
		
			<line fill="none" stroke="#000000" stroke-width="5" stroke-linecap="round" stroke-miterlimit="10" x1="163.65" y1="106.423" x2="171.42" y2="98.395"/>
		<path fill="none" stroke="#000000" stroke-width="5" stroke-linecap="round" stroke-miterlimit="10" d="M217.001,90.495
			c0,0,11.914,6.086,13.986,12.302"/>
		<path fill="none" stroke="#000000" stroke-width="5" stroke-linecap="round" stroke-miterlimit="10" d="M209.246,96.646
			c0,0,8.273,4.814,7.755,9.777"/>
	</g>
</g>
</svg>
