<?xml version="1.0" encoding="utf-8"?>
<!-- Generator: Adobe Illustrator 15.0.0, SVG Export Plug-In . SVG Version: 6.00 Build 0)  -->
<!DOCTYPE svg PUBLIC "-//W3C//DTD SVG 1.1//EN" "http://www.w3.org/Graphics/SVG/1.1/DTD/svg11.dtd">
<svg version="1.1" id="图层_2" xmlns="http://www.w3.org/2000/svg" xmlns:xlink="http://www.w3.org/1999/xlink" x="0px" y="0px"
	 width="274.241px" height="267.414px" viewBox="0 0 274.241 267.414" enable-background="new 0 0 274.241 267.414"
	 xml:space="preserve">
<path fill="#2A8EC7" d="M56.647,129.459V82.424c0,0,0-7.839,7.403-8.274c-0.436-0.436,57.051-7.839,57.051-7.839v63.148H56.647z"/>
<path fill="#48B5D1" d="M130.248,129.459v-64.89l76.649-11.323c0,0,9.146,1.307,9.146,8.274c0.436-0.435,0,67.939,0,67.939H130.248z
	"/>
<path fill="#204C97" d="M56.647,138.169v46.599c0,0-1.742,5.331,5.226,7.673c-0.436,0.166,59.229,8.875,59.229,8.875v-63.148H56.647
	z"/>
<path fill="#2D7CB8" d="M130.248,138.169v64.89l77.955,10.888c0,0,8.662,0.871,8.033-9.146c0.242-0.436,0.033-68.375,0.033-68.375
	L130.248,138.169z"/>
</svg>
