<?xml version="1.0" encoding="utf-8"?>
<!-- Generator: Adobe Illustrator 15.0.0, SVG Export Plug-In . SVG Version: 6.00 Build 0)  -->
<!DOCTYPE svg PUBLIC "-//W3C//DTD SVG 1.1//EN" "http://www.w3.org/Graphics/SVG/1.1/DTD/svg11.dtd">
<svg version="1.1" id="图层_2" xmlns="http://www.w3.org/2000/svg" xmlns:xlink="http://www.w3.org/1999/xlink" x="0px" y="0px"
	 width="274.241px" height="267.414px" viewBox="0 0 274.241 267.414" enable-background="new 0 0 274.241 267.414"
	 xml:space="preserve">
<path fill="#2A8EC7" d="M10.104,127.039V52.556c0,0,0-12.414,11.724-13.104c-0.689-0.689,90.345-12.414,90.345-12.414v100H10.104z"
	/>
<path fill="#48B5D1" d="M126.655,127.039V24.28l121.38-17.931c0,0,14.482,2.069,14.482,13.104c0.689-0.689,0,107.586,0,107.586
	H126.655z"/>
<path fill="#204C97" d="M10.104,140.832v73.793c0,0-2.759,8.441,8.276,12.152c-0.689,0.262,93.793,14.055,93.793,14.055v-100H10.104
	z"/>
<path fill="#2D7CB8" d="M126.655,140.832v102.759l123.448,17.241c0,0,13.717,1.38,12.721-14.482
	c0.383-0.69,0.052-108.276,0.052-108.276L126.655,140.832z"/>
</svg>
